<svg width="326" height="113" viewBox="0 0 326 113" fill="none" xmlns="http://www.w3.org/2000/svg">
<path d="M35.2031 77.9375V17H48.7969V89H36.5625L35.2031 77.9375ZM3.14062 64.25V63.2656C3.14062 59.3906 3.57812 55.875 4.45312 52.7188C5.32812 49.5312 6.60938 46.7969 8.29688 44.5156C9.98438 42.2344 12.0625 40.4688 14.5312 39.2188C17 37.9688 19.8125 37.3438 22.9688 37.3438C25.9375 37.3438 28.5312 37.9688 30.75 39.2188C33 40.4688 34.9062 42.25 36.4688 44.5625C38.0625 46.8438 39.3438 49.5469 40.3125 52.6719C41.2812 55.7656 41.9844 59.1562 42.4219 62.8438V65C41.9844 68.5312 41.2812 71.8125 40.3125 74.8438C39.3438 77.875 38.0625 80.5312 36.4688 82.8125C34.9062 85.0625 33 86.8125 30.75 88.0625C28.5 89.3125 25.875 89.9375 22.875 89.9375C19.7188 89.9375 16.9062 89.2969 14.4375 88.0156C12 86.7344 9.9375 84.9375 8.25 82.625C6.59375 80.3125 5.32812 77.5938 4.45312 74.4688C3.57812 71.3438 3.14062 67.9375 3.14062 64.25ZM16.6406 63.2656V64.25C16.6406 66.3438 16.7969 68.2969 17.1094 70.1094C17.4531 71.9219 18 73.5312 18.75 74.9375C19.5312 76.3125 20.5312 77.3906 21.75 78.1719C23 78.9219 24.5156 79.2969 26.2969 79.2969C28.6094 79.2969 30.5156 78.7812 32.0156 77.75C33.5156 76.6875 34.6562 75.2344 35.4375 73.3906C36.25 71.5469 36.7188 69.4219 36.8438 67.0156V60.875C36.75 58.9062 36.4688 57.1406 36 55.5781C35.5625 53.9844 34.9062 52.625 34.0312 51.5C33.1875 50.375 32.125 49.5 30.8438 48.875C29.5938 48.25 28.1094 47.9375 26.3906 47.9375C24.6406 47.9375 23.1406 48.3438 21.8906 49.1562C20.6406 49.9375 19.625 51.0156 18.8438 52.3906C18.0938 53.7656 17.5312 55.3906 17.1562 57.2656C16.8125 59.1094 16.6406 61.1094 16.6406 63.2656ZM81.9188 77.5625V54.9688C81.9188 53.3438 81.6531 51.9531 81.1219 50.7969C80.5906 49.6094 79.7625 48.6875 78.6375 48.0312C77.5438 47.375 76.1219 47.0469 74.3719 47.0469C72.8719 47.0469 71.575 47.3125 70.4813 47.8438C69.3875 48.3438 68.5438 49.0781 67.95 50.0469C67.3563 50.9844 67.0594 52.0938 67.0594 53.375H53.5594C53.5594 51.2188 54.0594 49.1719 55.0594 47.2344C56.0594 45.2969 57.5125 43.5938 59.4188 42.125C61.325 40.625 63.5906 39.4531 66.2156 38.6094C68.8719 37.7656 71.8406 37.3438 75.1219 37.3438C79.0594 37.3438 82.5594 38 85.6219 39.3125C88.6844 40.625 91.0906 42.5938 92.8406 45.2188C94.6219 47.8438 95.5125 51.125 95.5125 55.0625V76.7656C95.5125 79.5469 95.6844 81.8281 96.0281 83.6094C96.3719 85.3594 96.8719 86.8906 97.5281 88.2031V89H83.8875C83.2313 87.625 82.7313 85.9062 82.3875 83.8438C82.075 81.75 81.9188 79.6562 81.9188 77.5625ZM83.7 58.1094L83.7938 65.75H76.2469C74.4656 65.75 72.9188 65.9531 71.6063 66.3594C70.2938 66.7656 69.2156 67.3438 68.3719 68.0938C67.5281 68.8125 66.9031 69.6562 66.4969 70.625C66.1219 71.5938 65.9344 72.6562 65.9344 73.8125C65.9344 74.9688 66.2 76.0156 66.7313 76.9531C67.2625 77.8594 68.0281 78.5781 69.0281 79.1094C70.0281 79.6094 71.2 79.8594 72.5438 79.8594C74.575 79.8594 76.3406 79.4531 77.8406 78.6406C79.3406 77.8281 80.4969 76.8281 81.3094 75.6406C82.1531 74.4531 82.5906 73.3281 82.6219 72.2656L86.1844 77.9844C85.6844 79.2656 84.9969 80.5938 84.1219 81.9688C83.2781 83.3438 82.2 84.6406 80.8875 85.8594C79.575 87.0469 77.9969 88.0312 76.1531 88.8125C74.3094 89.5625 72.1219 89.9375 69.5906 89.9375C66.3719 89.9375 63.45 89.2969 60.825 88.0156C58.2313 86.7031 56.1688 84.9062 54.6375 82.625C53.1375 80.3125 52.3875 77.6875 52.3875 74.75C52.3875 72.0938 52.8875 69.7344 53.8875 67.6719C54.8875 65.6094 56.3563 63.875 58.2938 62.4688C60.2625 61.0312 62.7156 59.9531 65.6531 59.2344C68.5906 58.4844 71.9969 58.1094 75.8719 58.1094H83.7ZM128.541 74.9844C128.541 74.0156 128.259 73.1406 127.697 72.3594C127.134 71.5781 126.088 70.8594 124.556 70.2031C123.056 69.5156 120.884 68.8906 118.041 68.3281C115.478 67.7656 113.088 67.0625 110.869 66.2188C108.681 65.3438 106.775 64.2969 105.15 63.0781C103.556 61.8594 102.306 60.4219 101.4 58.7656C100.494 57.0781 100.041 55.1562 100.041 53C100.041 50.875 100.494 48.875 101.4 47C102.338 45.125 103.666 43.4688 105.384 42.0312C107.134 40.5625 109.259 39.4219 111.759 38.6094C114.291 37.7656 117.134 37.3438 120.291 37.3438C124.697 37.3438 128.478 38.0469 131.634 39.4531C134.822 40.8594 137.259 42.7969 138.947 45.2656C140.666 47.7031 141.525 50.4844 141.525 53.6094H128.025C128.025 52.2969 127.744 51.125 127.181 50.0938C126.65 49.0312 125.806 48.2031 124.65 47.6094C123.525 46.9844 122.056 46.6719 120.244 46.6719C118.744 46.6719 117.447 46.9375 116.353 47.4688C115.259 47.9688 114.416 48.6562 113.822 49.5312C113.259 50.375 112.978 51.3125 112.978 52.3438C112.978 53.125 113.134 53.8281 113.447 54.4531C113.791 55.0469 114.338 55.5938 115.088 56.0938C115.838 56.5938 116.806 57.0625 117.994 57.5C119.213 57.9062 120.713 58.2812 122.494 58.625C126.15 59.375 129.416 60.3594 132.291 61.5781C135.166 62.7656 137.447 64.3906 139.134 66.4531C140.822 68.4844 141.666 71.1562 141.666 74.4688C141.666 76.7188 141.166 78.7812 140.166 80.6562C139.166 82.5312 137.728 84.1719 135.853 85.5781C133.978 86.9531 131.728 88.0312 129.103 88.8125C126.509 89.5625 123.588 89.9375 120.338 89.9375C115.619 89.9375 111.619 89.0938 108.338 87.4062C105.088 85.7188 102.619 83.5781 100.931 80.9844C99.275 78.3594 98.4469 75.6719 98.4469 72.9219H111.244C111.306 74.7656 111.775 76.25 112.65 77.375C113.556 78.5 114.697 79.3125 116.072 79.8125C117.478 80.3125 118.994 80.5625 120.619 80.5625C122.369 80.5625 123.822 80.3281 124.978 79.8594C126.134 79.3594 127.009 78.7031 127.603 77.8906C128.228 77.0469 128.541 76.0781 128.541 74.9844ZM158.803 17V89H145.303V17H158.803ZM156.881 61.8594H153.178C153.209 58.3281 153.678 55.0781 154.584 52.1094C155.491 49.1094 156.788 46.5156 158.475 44.3281C160.163 42.1094 162.178 40.3906 164.522 39.1719C166.897 37.9531 169.522 37.3438 172.397 37.3438C174.897 37.3438 177.163 37.7031 179.194 38.4219C181.256 39.1094 183.022 40.2344 184.491 41.7969C185.991 43.3281 187.147 45.3438 187.959 47.8438C188.772 50.3438 189.178 53.375 189.178 56.9375V89H175.584V56.8438C175.584 54.5938 175.256 52.8281 174.6 51.5469C173.975 50.2344 173.053 49.3125 171.834 48.7812C170.647 48.2188 169.178 47.9375 167.428 47.9375C165.491 47.9375 163.834 48.2969 162.459 49.0156C161.116 49.7344 160.038 50.7344 159.225 52.0156C158.413 53.2656 157.819 54.7344 157.444 56.4219C157.069 58.1094 156.881 59.9219 156.881 61.8594ZM226.753 38.2812H238.988V87.3125C238.988 91.9375 237.956 95.8594 235.894 99.0781C233.863 102.328 231.019 104.781 227.363 106.438C223.706 108.125 219.456 108.969 214.613 108.969C212.488 108.969 210.238 108.688 207.863 108.125C205.519 107.562 203.269 106.688 201.113 105.5C198.988 104.312 197.206 102.812 195.769 101L201.722 93.0312C203.284 94.8438 205.097 96.25 207.159 97.25C209.222 98.2812 211.503 98.7969 214.003 98.7969C216.441 98.7969 218.503 98.3438 220.191 97.4375C221.878 96.5625 223.175 95.2656 224.081 93.5469C224.988 91.8594 225.441 89.8125 225.441 87.4062V50L226.753 38.2812ZM192.628 64.25V63.2656C192.628 59.3906 193.097 55.875 194.034 52.7188C195.003 49.5312 196.363 46.7969 198.113 44.5156C199.894 42.2344 202.05 40.4688 204.581 39.2188C207.113 37.9688 209.972 37.3438 213.159 37.3438C216.534 37.3438 219.363 37.9688 221.644 39.2188C223.925 40.4688 225.8 42.25 227.269 44.5625C228.738 46.8438 229.878 49.5469 230.691 52.6719C231.534 55.7656 232.191 59.1562 232.659 62.8438V65C232.191 68.5312 231.488 71.8125 230.55 74.8438C229.613 77.875 228.378 80.5312 226.847 82.8125C225.316 85.0625 223.409 86.8125 221.128 88.0625C218.878 89.3125 216.191 89.9375 213.066 89.9375C209.941 89.9375 207.113 89.2969 204.581 88.0156C202.081 86.7344 199.941 84.9375 198.159 82.625C196.378 80.3125 195.003 77.5938 194.034 74.4688C193.097 71.3438 192.628 67.9375 192.628 64.25ZM206.128 63.2656V64.25C206.128 66.3438 206.331 68.2969 206.738 70.1094C207.144 71.9219 207.769 73.5312 208.613 74.9375C209.488 76.3125 210.566 77.3906 211.847 78.1719C213.159 78.9219 214.706 79.2969 216.488 79.2969C218.956 79.2969 220.972 78.7812 222.534 77.75C224.097 76.6875 225.269 75.2344 226.05 73.3906C226.831 71.5469 227.284 69.4219 227.409 67.0156V60.875C227.347 58.9062 227.081 57.1406 226.613 55.5781C226.144 53.9844 225.488 52.625 224.644 51.5C223.8 50.375 222.706 49.5 221.363 48.875C220.019 48.25 218.425 47.9375 216.581 47.9375C214.8 47.9375 213.253 48.3438 211.941 49.1562C210.659 49.9375 209.581 51.0156 208.706 52.3906C207.863 53.7656 207.222 55.3906 206.784 57.2656C206.347 59.1094 206.128 61.1094 206.128 63.2656ZM242.531 64.1562V63.1719C242.531 59.4531 243.062 56.0312 244.125 52.9062C245.188 49.75 246.734 47.0156 248.766 44.7031C250.797 42.3906 253.297 40.5938 256.266 39.3125C259.234 38 262.641 37.3438 266.484 37.3438C270.328 37.3438 273.75 38 276.75 39.3125C279.75 40.5938 282.266 42.3906 284.297 44.7031C286.359 47.0156 287.922 49.75 288.984 52.9062C290.047 56.0312 290.578 59.4531 290.578 63.1719V64.1562C290.578 67.8438 290.047 71.2656 288.984 74.4219C287.922 77.5469 286.359 80.2812 284.297 82.625C282.266 84.9375 279.766 86.7344 276.797 88.0156C273.828 89.2969 270.422 89.9375 266.578 89.9375C262.734 89.9375 259.312 89.2969 256.312 88.0156C253.344 86.7344 250.828 84.9375 248.766 82.625C246.734 80.2812 245.188 77.5469 244.125 74.4219C243.062 71.2656 242.531 67.8438 242.531 64.1562ZM256.031 63.1719V64.1562C256.031 66.2812 256.219 68.2656 256.594 70.1094C256.969 71.9531 257.562 73.5781 258.375 74.9844C259.219 76.3594 260.312 77.4375 261.656 78.2188C263 79 264.641 79.3906 266.578 79.3906C268.453 79.3906 270.062 79 271.406 78.2188C272.75 77.4375 273.828 76.3594 274.641 74.9844C275.453 73.5781 276.047 71.9531 276.422 70.1094C276.828 68.2656 277.031 66.2812 277.031 64.1562V63.1719C277.031 61.1094 276.828 59.1719 276.422 57.3594C276.047 55.5156 275.438 53.8906 274.594 52.4844C273.781 51.0469 272.703 49.9219 271.359 49.1094C270.016 48.2969 268.391 47.8906 266.484 47.8906C264.578 47.8906 262.953 48.2969 261.609 49.1094C260.297 49.9219 259.219 51.0469 258.375 52.4844C257.562 53.8906 256.969 55.5156 256.594 57.3594C256.219 59.1719 256.031 61.1094 256.031 63.1719Z" fill="#181B23"/>
<circle cx="317" cy="80" r="9" fill="#ED649A"/>
</svg>
